<svg width="81" height="58" viewBox="0 0 81 58" fill="none" xmlns="http://www.w3.org/2000/svg">
<path d="M80.8208 1.73435C80.7518 1.55125 80.6646 1.37562 80.5605 1.21014C80.5192 1.10034 80.4709 0.993339 80.4159 0.889788C80.1466 0.620676 79.8455 0.385931 79.5192 0.190836L79.0275 0.0160986H2.72451C2.5226 -0.00536618 2.31901 -0.00536618 2.1171 0.0160986L1.62538 0.190836C1.47234 0.274563 1.32713 0.372035 1.19151 0.482066C1.03478 0.593466 0.889437 0.720291 0.757643 0.860666C0.702589 0.964181 0.65428 1.07119 0.61302 1.18102C0.307119 1.49355 0.0963615 1.88764 0.00560414 2.31682C-0.00186805 2.43319 -0.00186805 2.54992 0.00560414 2.66629V55.0877C0.00560414 55.8601 0.310344 56.6008 0.852785 57.147C1.39523 57.6932 2.13093 58 2.89806 58H78.1019C78.8691 58 79.6048 57.6932 80.1472 57.147C80.6897 56.6008 80.9944 55.8601 80.9944 55.0877V2.66629C81.0019 2.54992 81.0019 2.43319 80.9944 2.31682C80.9569 2.1171 80.8987 1.92188 80.8208 1.73435ZM69.5981 5.57859L40.5 28.1198L11.4019 5.57859H69.5981ZM75.2095 52.1754H5.79052V8.49089L38.7356 34.0026C39.2414 34.3947 39.8617 34.6072 40.5 34.6072C41.1383 34.6072 41.7586 34.3947 42.2644 34.0026L75.2095 8.49089V52.1754Z" fill="white"/>
</svg>
